<?xml version="1.0" standalone="no"?>
<svg viewBox="0 0 200 200" xmlns="http://www.w3.org/2000/svg">
  <path fill="#24A148" d="M51.8,-69.3C65.3,-61.5,73.2,-43.9,78.2,-26C83.2,-8.1,85.3,10.2,78.9,24.3C72.5,38.4,57.5,48.4,42.9,59.2C28.3,69.9,14.2,81.4,-1.2,83.1C-16.6,84.8,-33.3,76.7,-46.8,65.6C-60.3,54.5,-70.6,40.4,-73.7,25.3C-76.9,10.1,-72.7,-6.1,-68.5,-23.2C-64.2,-40.3,-59.9,-58.4,-48.4,-66.8C-37,-75.3,-18.5,-74.2,0.3,-74.7C19.1,-75.1,38.3,-77.1,51.8,-69.3Z" transform="translate(100 100)" />
</svg>
